<svg width="15" height="8" viewBox="0 0 15 8" fill="none" xmlns="http://www.w3.org/2000/svg">
<path d="M0.276991 0.277136C0.461748 0.0923787 0.680502 0 0.933249 0C1.18551 0 1.40401 0.0923787 1.58877 0.277136L7.00216 5.69053L12.434 0.25866C12.6065 0.0862201 12.822 0 13.0807 0C13.3393 0 13.5611 0.0923787 13.7458 0.277136C13.9306 0.461894 14.0229 0.680647 14.0229 0.933395C14.0229 1.18565 13.9306 1.40416 13.7458 1.58891L7.51948 7.79677C7.44558 7.87067 7.36552 7.92314 7.2793 7.95418C7.19308 7.98473 7.1007 8 7.00216 8C6.90363 8 6.81125 7.98473 6.72503 7.95418C6.63881 7.92314 6.55875 7.87067 6.48484 7.79677L0.258515 1.57044C0.0860748 1.398 -0.000144958 1.18565 -0.000144958 0.933395C-0.000144958 0.680647 0.0922337 0.461894 0.276991 0.277136Z" fill="black"/>
</svg>
